# Apple ModelIO OBJ File: counterTop
mtllib counterTop.mtl
g 
v -21.749 -0.123828 -43.591
v -22.4828 -0.103164 -43.591
v -22.4828 -0.103164 -51.1522
v -21.749 -0.123828 -51.1522
v -23.1049 -0.044318 -43.591
v -23.1049 -0.044318 -51.1522
v -23.5206 0.043751 -43.591
v -23.5206 0.043751 -51.1522
v -23.6665 0.147635 -43.591
v -23.6665 0.147635 -51.1522
v -21.749 0.147635 -43.3195
v -21.749 0.043751 -43.3401
v 31.662 0.043751 -43.3401
v 31.662 0.147635 -43.3195
v -21.749 -0.044318 -43.399
v 31.662 -0.044318 -43.399
v -21.749 -0.103164 -43.4871
v 31.662 -0.103164 -43.4871
v 31.662 -0.123828 -43.591
v -23.5206 0.147635 -43.4871
v -23.5206 7.7089 -43.4871
v -23.6665 7.7089 -43.591
v -23.1049 0.147635 -43.399
v -23.1049 7.7089 -43.399
v -22.4828 0.147635 -43.3401
v -22.4828 7.7089 -43.3401
v -21.749 7.7089 -43.3195
v 33.5796 0.147635 -43.591
v 33.4336 0.043751 -43.591
v 33.4336 0.043751 -51.1522
v 33.5796 0.147635 -51.1522
v 33.018 -0.044318 -43.591
v 33.018 -0.044318 -51.1522
v 32.3959 -0.103164 -43.591
v 32.3959 -0.103164 -51.1522
v 31.662 -0.123828 -51.1522
v 32.3959 0.147635 -43.3401
v 32.3959 7.7089 -43.3401
v 31.662 7.7089 -43.3195
v 33.018 0.147635 -43.399
v 33.018 7.7089 -43.399
v 33.4336 0.147635 -43.4871
v 33.4336 7.7089 -43.4871
v 33.5796 7.7089 -43.591
v -23.5206 7.81278 -43.591
v -23.5206 7.81278 -51.1522
v -23.6665 7.7089 -51.1522
v -23.1049 7.90085 -43.591
v -23.1049 7.90085 -51.1522
v -22.4828 7.9597 -43.591
v -22.4828 7.9597 -51.1522
v -21.749 7.98036 -43.591
v -21.749 7.98036 -51.1522
v -21.749 7.9597 -43.4871
v 31.662 7.9597 -43.4871
v 31.662 7.98036 -43.591
v -21.749 7.90085 -43.399
v 31.662 7.90085 -43.399
v -21.749 7.81278 -43.3401
v 31.662 7.81278 -43.3401
v 32.3959 7.9597 -43.591
v 32.3959 7.9597 -51.1522
v 31.662 7.98036 -51.1522
v 33.018 7.90085 -43.591
v 33.018 7.90085 -51.1522
v 33.4336 7.81278 -43.591
v 33.4336 7.81278 -51.1522
v 33.5796 7.7089 -51.1522
v -23.5206 7.7089 -51.2561
v -23.5206 0.147635 -51.2561
v -23.1049 7.7089 -51.3441
v -23.1049 0.147635 -51.3441
v -22.4828 7.7089 -51.403
v -22.4828 0.147635 -51.403
v -21.749 7.7089 -51.4236
v -21.749 0.147635 -51.4236
v -21.749 7.81278 -51.403
v 31.662 7.81278 -51.403
v 31.662 7.7089 -51.4236
v -21.749 7.90085 -51.3441
v 31.662 7.90085 -51.3441
v -21.749 7.9597 -51.2561
v 31.662 7.9597 -51.2561
v 32.3959 7.7089 -51.403
v 32.3959 0.147635 -51.403
v 31.662 0.147635 -51.4236
v 33.018 7.7089 -51.3441
v 33.018 0.147635 -51.3441
v 33.4336 7.7089 -51.2561
v 33.4336 0.147635 -51.2561
v -21.749 -0.103164 -51.2561
v 31.662 -0.103164 -51.2561
v -21.749 -0.044318 -51.3441
v 31.662 -0.044318 -51.3441
v -21.749 0.043751 -51.403
v 31.662 0.043751 -51.403
v -23.422 0.053935 -43.4973
v -23.0443 -0.03573 -43.5114
v -22.4109 -0.089207 -43.4973
v -22.3109 -0.03573 -43.4076
v -22.4109 0.053935 -43.3541
v -23.0443 0.068082 -43.4076
v -22.8557 -0.00904 -43.4343
v 32.3239 -0.089207 -43.4973
v 32.9573 -0.03573 -43.5114
v 33.335 0.053935 -43.4973
v 32.9573 0.068082 -43.4076
v 32.3239 0.053935 -43.3541
v 32.224 -0.03573 -43.4076
v 32.7688 -0.00904 -43.4343
v -22.4109 7.94574 -43.4973
v -23.0443 7.89226 -43.5114
v -23.422 7.8026 -43.4973
v -23.0443 7.78845 -43.4076
v -22.4109 7.8026 -43.3541
v -22.3109 7.89226 -43.4076
v -22.8557 7.86557 -43.4343
v 33.335 7.8026 -43.4973
v 32.9573 7.89226 -43.5114
v 32.3239 7.94574 -43.4973
v 32.224 7.89226 -43.4076
v 32.3239 7.8026 -43.3541
v 32.9573 7.78845 -43.4076
v 32.7688 7.86557 -43.4343
v -22.4109 7.8026 -51.3891
v -23.0443 7.78845 -51.3355
v -23.422 7.8026 -51.2459
v -23.0443 7.89226 -51.2317
v -22.4109 7.94574 -51.2459
v -22.3109 7.89226 -51.3355
v -22.8557 7.86557 -51.3089
v 33.335 7.8026 -51.2459
v 32.9573 7.78845 -51.3355
v 32.3239 7.8026 -51.3891
v 32.224 7.89226 -51.3355
v 32.3239 7.94574 -51.2459
v 32.9573 7.89226 -51.2317
v 32.7688 7.86557 -51.3089
v -22.4109 -0.089207 -51.2459
v -23.0443 -0.03573 -51.2317
v -23.422 0.053935 -51.2459
v -23.0443 0.068082 -51.3355
v -22.4109 0.053935 -51.3891
v -22.3109 -0.03573 -51.3355
v -22.8557 -0.00904 -51.3089
v 33.335 0.053935 -51.2459
v 32.9573 -0.03573 -51.2317
v 32.3239 -0.089207 -51.2459
v 32.224 -0.03573 -51.3355
v 32.3239 0.053935 -51.3891
v 32.9573 0.068082 -51.3355
v 32.7688 -0.00904 -51.3089
vn -0.000381 -0.999996 0.002689
vn -0.058507 -0.998285 0.002208
vn -0.058507 -0.998285 -0.002208
vn -0.000381 -0.999996 -0.002689
vn -0.140168 -0.990124 0.002645
vn -0.140168 -0.990124 -0.002645
vn -0.323562 -0.946193 0.005054
vn -0.323562 -0.946193 -0.005054
vn -0.999639 -0.018988 0.018988
vn -0.999639 -0.018988 -0.018988
vn -0.00038 -0.002685 0.999996
vn -0.000289 -0.382505 0.923953
vn 0.000289 -0.382505 0.923953
vn 0.00038 -0.002685 0.999996
vn -0.000267 -0.707185 0.707029
vn 0.000267 -0.707185 0.707029
vn -0.000289 -0.923952 0.382509
vn 0.000289 -0.923952 0.382509
vn 0.000381 -0.999996 0.002689
vn -0.323559 -0.005054 0.946194
vn -0.323559 0.005054 0.946195
vn -0.999639 0.018988 0.018988
vn -0.140198 -0.002645 0.99012
vn -0.140198 0.002645 0.99012
vn -0.058507 -0.002207 0.998285
vn -0.058507 0.002207 0.998285
vn -0.00038 0.002685 0.999996
vn 0.999639 -0.018992 0.018992
vn 0.323548 -0.946198 0.005054
vn 0.323548 -0.946198 -0.005054
vn 0.999639 -0.018992 -0.018992
vn 0.140168 -0.990124 0.002645
vn 0.140168 -0.990124 -0.002645
vn 0.058507 -0.998285 0.002208
vn 0.058507 -0.998285 -0.002208
vn 0.000381 -0.999996 -0.002689
vn 0.058507 -0.002207 0.998285
vn 0.058507 0.002207 0.998285
vn 0.00038 0.002685 0.999996
vn 0.140198 -0.002645 0.99012
vn 0.140198 0.002645 0.99012
vn 0.323545 -0.005054 0.946199
vn 0.323545 0.005054 0.946199
vn 0.999639 0.018992 0.018992
vn -0.323562 0.946194 0.005054
vn -0.323562 0.946194 -0.005054
vn -0.999639 0.018988 -0.018988
vn -0.140169 0.990124 0.002645
vn -0.140169 0.990124 -0.002645
vn -0.058506 0.998285 0.002208
vn -0.058506 0.998285 -0.002208
vn -0.000381 0.999996 0.002689
vn -0.000381 0.999996 -0.002689
vn -0.000289 0.923952 0.382508
vn 0.000289 0.923952 0.382508
vn 0.000381 0.999996 0.002689
vn -0.000267 0.707182 0.707031
vn 0.000267 0.707182 0.707031
vn -0.000289 0.382506 0.923953
vn 0.000289 0.382506 0.923953
vn 0.058506 0.998285 0.002208
vn 0.058506 0.998285 -0.002208
vn 0.000381 0.999996 -0.002689
vn 0.140169 0.990124 0.002645
vn 0.140169 0.990124 -0.002645
vn 0.323547 0.946198 0.005054
vn 0.323548 0.946198 -0.005054
vn 0.999639 0.018992 -0.018992
vn -0.323559 0.005055 -0.946195
vn -0.323559 -0.005055 -0.946195
vn -0.140166 0.002645 -0.990125
vn -0.140166 -0.002645 -0.990125
vn -0.058507 0.002207 -0.998285
vn -0.058507 -0.002207 -0.998285
vn -0.00038 0.002685 -0.999996
vn -0.00038 -0.002685 -0.999996
vn -0.000289 0.382506 -0.923953
vn 0.000289 0.382506 -0.923953
vn 0.00038 0.002685 -0.999996
vn -0.000267 0.707099 -0.707115
vn 0.000267 0.707099 -0.707115
vn -0.000289 0.923952 -0.382508
vn 0.000289 0.923952 -0.382508
vn 0.058507 0.002207 -0.998285
vn 0.058507 -0.002207 -0.998285
vn 0.00038 -0.002685 -0.999996
vn 0.140166 0.002645 -0.990125
vn 0.140166 -0.002645 -0.990125
vn 0.323545 0.005055 -0.946199
vn 0.323545 -0.005055 -0.946199
vn -0.000289 -0.923952 -0.382509
vn 0.000289 -0.923952 -0.382509
vn -0.000267 -0.707101 -0.707112
vn 0.000267 -0.707101 -0.707112
vn -0.000289 -0.382505 -0.923953
vn 0.000289 -0.382505 -0.923953
vn -0.25225 -0.684242 0.684239
vn -0.127806 -0.902795 0.410641
vn -0.050685 -0.932335 0.358026
vn -0.045489 -0.706442 0.706307
vn -0.050694 -0.35809 0.93231
vn -0.127826 -0.410697 0.902767
vn -0.09961 -0.703625 0.703555
vn 0.050685 -0.932335 0.358024
vn 0.127806 -0.902795 0.410641
vn 0.252244 -0.684243 0.68424
vn 0.127827 -0.410696 0.902768
vn 0.050694 -0.358089 0.93231
vn 0.045489 -0.706442 0.706307
vn 0.099611 -0.703625 0.703555
vn -0.050685 0.932334 0.358028
vn -0.127806 0.902794 0.410643
vn -0.25225 0.684242 0.684239
vn -0.127826 0.410697 0.902767
vn -0.050694 0.358089 0.93231
vn -0.04549 0.706442 0.706308
vn -0.099611 0.703625 0.703555
vn 0.252244 0.684244 0.684239
vn 0.127807 0.902795 0.410642
vn 0.050686 0.932335 0.358027
vn 0.045489 0.706443 0.706307
vn 0.050694 0.358089 0.93231
vn 0.127827 0.4107 0.902766
vn 0.099612 0.703625 0.703554
vn -0.050694 0.358092 -0.932309
vn -0.127805 0.410708 -0.902765
vn -0.25224 0.68428 -0.684204
vn -0.127808 0.90281 -0.410607
vn -0.05069 0.932336 -0.358022
vn -0.045494 0.706387 -0.706363
vn -0.099607 0.703605 -0.703575
vn 0.252234 0.684283 -0.684204
vn 0.127806 0.41071 -0.902764
vn 0.050694 0.358091 -0.93231
vn 0.045494 0.706386 -0.706364
vn 0.05069 0.932336 -0.358022
vn 0.127808 0.902811 -0.410606
vn 0.099608 0.703604 -0.703576
vn -0.05069 -0.932337 -0.35802
vn -0.127808 -0.902811 -0.410606
vn -0.252239 -0.684281 -0.684204
vn -0.127805 -0.410706 -0.902766
vn -0.050694 -0.358091 -0.932309
vn -0.045494 -0.706387 -0.706363
vn -0.099607 -0.703604 -0.703576
vn 0.252234 -0.684283 -0.684204
vn 0.127808 -0.902811 -0.410606
vn 0.05069 -0.932337 -0.358021
vn 0.045494 -0.706386 -0.706363
vn 0.050694 -0.358092 -0.932309
vn 0.127806 -0.410709 -0.902765
vn 0.099608 -0.703604 -0.703576
vt 0.033497 0.433959
vt 0.020678 0.433959
vt 0.020678 0.566041
vt 0.033497 0.566041
vt 0.009811 0.433959
vt 0.009811 0.566041
vt 0.00255 0.433959
vt 0.00255 0.566041
vt -0 0.433959
vt -0 0.566041
vt 0.033497 0.429217
vt 0.033497 0.429577
vt 0.966503 0.429577
vt 0.966503 0.429217
vt 0.033497 0.430605
vt 0.966503 0.430605
vt 0.033497 0.432144
vt 0.966503 0.432144
vt 0.966503 0.433959
vt 0.057869 0.433958
vt 0.060124 0.433958
vt 0.060124 0.566042
vt 0.057869 0.566042
vt 0.066544 0.433958
vt 0.066544 0.566042
vt 0.076154 0.433958
vt 0.076154 0.566042
vt 0.087489 0.433958
vt 0.087489 0.566042
vt 1 0.433959
vt 0.99745 0.433959
vt 0.99745 0.566041
vt 1 0.566041
vt 0.990189 0.433959
vt 0.990189 0.566041
vt 0.979321 0.433959
vt 0.979321 0.566041
vt 0.966503 0.566041
vt 0.912511 0.433958
vt 0.923846 0.433958
vt 0.923846 0.566042
vt 0.912511 0.566042
vt 0.933455 0.433958
vt 0.933455 0.566042
vt 0.939876 0.433958
vt 0.939876 0.566042
vt 0.942131 0.433958
vt 0.942131 0.566042
vt 0.033497 0.570783
vt 0.033497 0.570423
vt 0.966503 0.570423
vt 0.966503 0.570783
vt 0.033497 0.569395
vt 0.966503 0.569395
vt 0.033497 0.567857
vt 0.966503 0.567857
vt 0.00255 0.432144
vt 0.004272 0.432322
vt 0.01087 0.432569
vt 0.021935 0.432322
vt 0.02368 0.430755
vt 0.021935 0.429821
vt 0.020678 0.429577
vt 0.009811 0.430605
vt 0.01087 0.430755
vt 0.014164 0.431222
vt 0.978065 0.432322
vt 0.989129 0.432569
vt 0.995728 0.432322
vt 0.99745 0.432144
vt 0.990189 0.430605
vt 0.989129 0.430755
vt 0.979321 0.429577
vt 0.978065 0.429821
vt 0.976319 0.430755
vt 0.985836 0.431222
vt 0.020678 0.570423
vt 0.021935 0.570179
vt 0.009811 0.569395
vt 0.01087 0.569245
vt 0.00255 0.567857
vt 0.004272 0.567678
vt 0.01087 0.567431
vt 0.021935 0.567678
vt 0.02368 0.569245
vt 0.014164 0.568778
vt 0.99745 0.567857
vt 0.995728 0.567678
vt 0.990189 0.569395
vt 0.989129 0.569245
vt 0.979321 0.570423
vt 0.978065 0.570179
vt 0.976319 0.569245
vt 0.978065 0.567678
vt 0.989129 0.567431
vt 0.985836 0.568778
usemtl material_1
f 1/1/1 2/2/2 3/3/3 4/4/4 
f 2/2/2 5/5/5 6/6/6 3/3/3 
f 5/5/5 7/7/7 8/8/8 6/6/6 
f 7/7/7 9/9/9 10/10/10 8/8/8 
f 11/11/11 12/12/12 13/13/13 14/14/14 
f 12/12/12 15/15/15 16/16/16 13/13/13 
f 15/15/15 17/17/17 18/18/18 16/16/16 
f 17/17/17 1/1/1 19/19/19 18/18/18 
f 9/20/9 20/21/20 21/22/21 22/23/22 
f 20/21/20 23/24/23 24/25/24 21/22/21 
f 23/24/23 25/26/25 26/27/26 24/25/24 
f 25/26/25 11/28/11 27/29/27 26/27/26 
f 28/30/28 29/31/29 30/32/30 31/33/31 
f 29/31/29 32/34/32 33/35/33 30/32/30 
f 32/34/32 34/36/34 35/37/35 33/35/33 
f 34/36/34 19/19/19 36/38/36 35/37/35 
f 14/39/14 37/40/37 38/41/38 39/42/39 
f 37/40/37 40/43/40 41/44/41 38/41/38 
f 40/43/40 42/45/42 43/46/43 41/44/41 
f 42/45/42 28/47/28 44/48/44 43/46/43 
f 22/9/22 45/7/45 46/8/46 47/10/47 
f 45/7/45 48/5/48 49/6/49 46/8/46 
f 48/5/48 50/2/50 51/3/51 49/6/49 
f 50/2/50 52/1/52 53/4/53 51/3/51 
f 52/1/52 54/17/54 55/18/55 56/19/56 
f 54/17/54 57/15/57 58/16/58 55/18/55 
f 57/15/57 59/12/59 60/13/60 58/16/58 
f 59/12/59 27/11/27 39/14/39 60/13/60 
f 56/19/56 61/36/61 62/37/62 63/38/63 
f 61/36/61 64/34/64 65/35/65 62/37/62 
f 64/34/64 66/31/66 67/32/67 65/35/65 
f 66/31/66 44/30/44 68/33/68 67/32/67 
f 47/23/47 69/22/69 70/21/70 10/20/10 
f 69/22/69 71/25/71 72/24/72 70/21/70 
f 71/25/71 73/27/73 74/26/74 72/24/72 
f 73/27/73 75/29/75 76/28/76 74/26/74 
f 75/49/75 77/50/77 78/51/78 79/52/79 
f 77/50/77 80/53/80 81/54/81 78/51/78 
f 80/53/80 82/55/82 83/56/83 81/54/81 
f 82/55/82 53/4/53 63/38/63 83/56/83 
f 79/42/79 84/41/84 85/40/85 86/39/86 
f 84/41/84 87/44/87 88/43/88 85/40/85 
f 87/44/87 89/46/89 90/45/90 88/43/88 
f 89/46/89 68/48/68 31/47/31 90/45/90 
f 4/4/4 91/55/91 92/56/92 36/38/36 
f 91/55/91 93/53/93 94/54/94 92/56/92 
f 93/53/93 95/50/95 96/51/96 94/54/94 
f 95/50/95 76/49/76 86/52/86 96/51/96 
f 11/28/11 14/39/14 39/42/39 27/29/27 
f 52/1/52 56/19/56 63/38/63 53/4/53 
f 75/29/75 79/42/79 86/39/86 76/28/76 
f 4/4/4 36/38/36 19/19/19 1/1/1 
f 28/47/28 31/47/31 68/48/68 44/48/44 
f 10/20/10 9/20/9 22/23/22 47/23/47 
f 20/57/20 9/9/9 7/7/7 97/58/97 
f 97/58/97 7/7/7 5/5/5 98/59/98 
f 98/59/98 5/5/5 2/2/2 99/60/99 
f 2/2/2 1/1/1 17/17/17 99/60/99 
f 99/60/99 17/17/17 15/15/15 100/61/100 
f 100/61/100 15/15/15 12/12/12 101/62/101 
f 12/12/12 11/11/11 25/63/25 101/62/101 
f 101/62/101 25/63/25 23/64/23 102/65/102 
f 102/65/102 23/64/23 20/57/20 97/58/97 
f 102/65/102 97/58/97 98/59/98 103/66/103 
f 98/59/98 99/60/99 100/61/100 103/66/103 
f 100/61/100 101/62/101 102/65/102 103/66/103 
f 18/18/18 19/19/19 34/36/34 104/67/104 
f 104/67/104 34/36/34 32/34/32 105/68/105 
f 105/68/105 32/34/32 29/31/29 106/69/106 
f 29/31/29 28/30/28 42/70/42 106/69/106 
f 106/69/106 42/70/42 40/71/40 107/72/107 
f 107/72/107 40/71/40 37/73/37 108/74/108 
f 37/73/37 14/14/14 13/13/13 108/74/108 
f 108/74/108 13/13/13 16/16/16 109/75/109 
f 109/75/109 16/16/16 18/18/18 104/67/104 
f 109/75/109 104/67/104 105/68/105 110/76/110 
f 105/68/105 106/69/106 107/72/107 110/76/110 
f 107/72/107 108/74/108 109/75/109 110/76/110 
f 54/17/54 52/1/52 50/2/50 111/60/111 
f 111/60/111 50/2/50 48/5/48 112/59/112 
f 112/59/112 48/5/48 45/7/45 113/58/113 
f 45/7/45 22/9/22 21/57/21 113/58/113 
f 113/58/113 21/57/21 24/64/24 114/65/114 
f 114/65/114 24/64/24 26/63/26 115/62/115 
f 26/63/26 27/11/27 59/12/59 115/62/115 
f 115/62/115 59/12/59 57/15/57 116/61/116 
f 116/61/116 57/15/57 54/17/54 111/60/111 
f 116/61/116 111/60/111 112/59/112 117/66/117 
f 112/59/112 113/58/113 114/65/114 117/66/117 
f 114/65/114 115/62/115 116/61/116 117/66/117 
f 43/70/43 44/30/44 66/31/66 118/69/118 
f 118/69/118 66/31/66 64/34/64 119/68/119 
f 119/68/119 64/34/64 61/36/61 120/67/120 
f 61/36/61 56/19/56 55/18/55 120/67/120 
f 120/67/120 55/18/55 58/16/58 121/75/121 
f 121/75/121 58/16/58 60/13/60 122/74/122 
f 60/13/60 39/14/39 38/73/38 122/74/122 
f 122/74/122 38/73/38 41/71/41 123/72/123 
f 123/72/123 41/71/41 43/70/43 118/69/118 
f 123/72/123 118/69/118 119/68/119 124/76/124 
f 119/68/119 120/67/120 121/75/121 124/76/124 
f 121/75/121 122/74/122 123/72/123 124/76/124 
f 77/50/77 75/49/75 73/77/73 125/78/125 
f 125/78/125 73/77/73 71/79/71 126/80/126 
f 126/80/126 71/79/71 69/81/69 127/82/127 
f 69/81/69 47/10/47 46/8/46 127/82/127 
f 127/82/127 46/8/46 49/6/49 128/83/128 
f 128/83/128 49/6/49 51/3/51 129/84/129 
f 51/3/51 53/4/53 82/55/82 129/84/129 
f 129/84/129 82/55/82 80/53/80 130/85/130 
f 130/85/130 80/53/80 77/50/77 125/78/125 
f 130/85/130 125/78/125 126/80/126 131/86/131 
f 126/80/126 127/82/127 128/83/128 131/86/131 
f 128/83/128 129/84/129 130/85/130 131/86/131 
f 67/32/67 68/33/68 89/87/89 132/88/132 
f 132/88/132 89/87/89 87/89/87 133/90/133 
f 133/90/133 87/89/87 84/91/84 134/92/134 
f 84/91/84 79/52/79 78/51/78 134/92/134 
f 134/92/134 78/51/78 81/54/81 135/93/135 
f 135/93/135 81/54/81 83/56/83 136/94/136 
f 83/56/83 63/38/63 62/37/62 136/94/136 
f 136/94/136 62/37/62 65/35/65 137/95/137 
f 137/95/137 65/35/65 67/32/67 132/88/132 
f 137/95/137 132/88/132 133/90/133 138/96/138 
f 133/90/133 134/92/134 135/93/135 138/96/138 
f 135/93/135 136/94/136 137/95/137 138/96/138 
f 91/55/91 4/4/4 3/3/3 139/84/139 
f 139/84/139 3/3/3 6/6/6 140/83/140 
f 140/83/140 6/6/6 8/8/8 141/82/141 
f 8/8/8 10/10/10 70/81/70 141/82/141 
f 141/82/141 70/81/70 72/79/72 142/80/142 
f 142/80/142 72/79/72 74/77/74 143/78/143 
f 74/77/74 76/49/76 95/50/95 143/78/143 
f 143/78/143 95/50/95 93/53/93 144/85/144 
f 144/85/144 93/53/93 91/55/91 139/84/139 
f 144/85/144 139/84/139 140/83/140 145/86/145 
f 140/83/140 141/82/141 142/80/142 145/86/145 
f 142/80/142 143/78/143 144/85/144 145/86/145 
f 90/87/90 31/33/31 30/32/30 146/88/146 
f 146/88/146 30/32/30 33/35/33 147/95/147 
f 147/95/147 33/35/33 35/37/35 148/94/148 
f 35/37/35 36/38/36 92/56/92 148/94/148 
f 148/94/148 92/56/92 94/54/94 149/93/149 
f 149/93/149 94/54/94 96/51/96 150/92/150 
f 96/51/96 86/52/86 85/91/85 150/92/150 
f 150/92/150 85/91/85 88/89/88 151/90/151 
f 151/90/151 88/89/88 90/87/90 146/88/146 
f 151/90/151 146/88/146 147/95/147 152/96/152 
f 147/95/147 148/94/148 149/93/149 152/96/152 
f 149/93/149 150/92/150 151/90/151 152/96/152 
s off
