# Apple ModelIO OBJ File: houseWalls
mtllib houseWalls.mtl
g 
v 34.977 -0.198572 57.101
v 34.977 33.1256 57.101
v 34.2591 33.1256 57.101
v 34.2591 -0.198572 57.101
v 34.2591 33.1256 -53.101
v 34.2591 -0.198572 -53.101
v 34.977 33.1256 -53.101
v 34.977 -0.198572 -53.101
vn 0 0 1
vn -1 0 0
vn 0 0 -1
vn 1 0 0
vn 0 1 0
vn 0 -1 0
vt 0.375 0
vt 0.625 0
vt 0.625 0.25
vt 0.375 0.25
vt 0.625 0.5
vt 0.375 0.5
vt 0.625 0.75
vt 0.375 0.75
vt 0.625 1
vt 0.375 1
vt 0.875 0
vt 0.875 0.25
vt 0.125 0
vt 0.125 0.25
usemtl material_1
f 1/1/1 2/2/1 3/3/1 4/4/1 
f 4/4/2 3/3/2 5/5/2 6/6/2 
f 6/6/3 5/5/3 7/7/3 8/8/3 
f 8/8/4 7/7/4 2/9/4 1/10/4 
f 2/2/5 7/11/5 5/12/5 3/3/5 
f 8/13/6 1/1/6 4/4/6 6/14/6 
s off
g _1
v -34.8668 -0.043061 56.5867
v -34.8668 32.9701 56.5867
v -35.5781 32.9701 56.5867
v -35.5781 -0.043061 56.5867
v -35.5781 32.9701 -52.5867
v -35.5781 -0.043061 -52.5867
v -34.8668 32.9701 -52.5867
v -34.8668 -0.043061 -52.5867
vn 0 0 1
vn -1 0 0
vn 0 0 -1
vn 1 0 0
vn 0 1 0
vn 0 -1 0
vt 0.375 0
vt 0.625 0
vt 0.625 0.25
vt 0.375 0.25
vt 0.625 0.5
vt 0.375 0.5
vt 0.625 0.75
vt 0.375 0.75
vt 0.625 1
vt 0.375 1
vt 0.875 0
vt 0.875 0.25
vt 0.125 0
vt 0.125 0.25
usemtl material_2
f 9/15/7 10/16/7 11/17/7 12/18/7 
f 12/18/8 11/17/8 13/19/8 14/20/8 
f 14/20/9 13/19/9 15/21/9 16/22/9 
f 16/22/10 15/21/10 10/23/10 9/24/10 
f 10/16/11 15/25/11 13/26/11 11/17/11 
f 16/27/12 9/15/12 12/18/12 14/28/12 
s off
g _2
v -36.0436 -0.171512 57.101
v 34.7232 -0.171512 57.101
v 34.7232 0.171512 57.101
v -36.0436 0.171512 57.101
v 34.7232 0.171512 -53.101
v -36.0436 0.171512 -53.101
v 34.7232 -0.171512 -53.101
v -36.0436 -0.171512 -53.101
vn 0 0 1
vn 0 1 0
vn 0 0 -1
vn 0 -1 0
vn 1 0 0
vn -1 0 0
vt 0.375 0
vt 0.625 0
vt 0.625 0.25
vt 0.375 0.25
vt 0.625 0.5
vt 0.375 0.5
vt 0.625 0.75
vt 0.375 0.75
vt 0.625 1
vt 0.375 1
vt 0.875 0
vt 0.875 0.25
vt 0.125 0
vt 0.125 0.25
usemtl material_3
f 17/29/13 18/30/13 19/31/13 20/32/13 
f 20/32/14 19/31/14 21/33/14 22/34/14 
f 22/34/15 21/33/15 23/35/15 24/36/15 
f 24/36/16 23/35/16 18/37/16 17/38/16 
f 18/30/17 23/39/17 21/40/17 19/31/17 
f 24/41/18 17/29/18 20/32/18 22/42/18 
s off
g _3
v 34.9089 -0.198572 -53.4387
v 34.9089 33.1256 -53.4387
v 34.9089 33.1256 -52.3044
v 34.9089 -0.198572 -52.3044
v -34.8405 33.1256 -52.3044
v -34.8405 -0.198572 -52.3044
v -34.8405 33.1256 -53.4387
v -34.8405 -0.198572 -53.4387
vn 1 0 0
vn 0 0 1
vn -1 0 0
vn 0 0 -1
vn 0 1 0
vn 0 -1 0
vt 0.375 0
vt 0.625 0
vt 0.625 0.25
vt 0.375 0.25
vt 0.625 0.5
vt 0.375 0.5
vt 0.625 0.75
vt 0.375 0.75
vt 0.625 1
vt 0.375 1
vt 0.875 0
vt 0.875 0.25
vt 0.125 0
vt 0.125 0.25
usemtl material_4
f 25/43/19 26/44/19 27/45/19 28/46/19 
f 28/46/20 27/45/20 29/47/20 30/48/20 
f 30/48/21 29/47/21 31/49/21 32/50/21 
f 32/50/22 31/49/22 26/51/22 25/52/22 
f 26/44/23 31/53/23 29/54/23 27/45/23 
f 32/55/24 25/43/24 28/46/24 30/56/24 
s off
g _4
v 34.9089 -0.198572 55.863
v 34.9089 33.1256 55.863
v 34.9089 33.1256 56.9974
v 34.9089 -0.198572 56.9974
v -34.8405 33.1256 56.9974
v -34.8405 -0.198572 56.9974
v -34.8405 33.1256 55.863
v -34.8405 -0.198572 55.863
vn 1 0 0
vn 0 0 1
vn -1 0 0
vn 0 0 -1
vn 0 1 0
vn 0 -1 0
vt 0.375 0
vt 0.625 0
vt 0.625 0.25
vt 0.375 0.25
vt 0.625 0.5
vt 0.375 0.5
vt 0.625 0.75
vt 0.375 0.75
vt 0.625 1
vt 0.375 1
vt 0.875 0
vt 0.875 0.25
vt 0.125 0
vt 0.125 0.25
usemtl material_5
f 33/57/25 34/58/25 35/59/25 36/60/25 
f 36/60/26 35/59/26 37/61/26 38/62/26 
f 38/62/27 37/61/27 39/63/27 40/64/27 
f 40/64/28 39/63/28 34/65/28 33/66/28 
f 34/58/29 39/67/29 37/68/29 35/59/29 
f 40/69/30 33/57/30 36/60/30 38/70/30 
s off
