# Apple ModelIO OBJ File: tvTable
mtllib tvTable.mtl
g 
v 34.4632 -0.521033 30.8409
v 34.4632 -0.509893 31.147
v 29.7412 -0.509893 31.147
v 29.7412 -0.521033 30.8409
v 34.4632 -0.478172 31.4065
v 29.7412 -0.478172 31.4065
v 34.4632 -0.430697 31.5798
v 29.7412 -0.430697 31.5798
v 34.4632 -0.374696 31.6407
v 29.7412 -0.374696 31.6407
v 34.6327 -0.374696 30.8409
v 34.6198 -0.430697 30.8409
v 34.6198 -0.430697 8.5622
v 34.6327 -0.374696 8.5622
v 34.5831 -0.478172 30.8409
v 34.5831 -0.478172 8.5622
v 34.5281 -0.509893 30.8409
v 34.5281 -0.509893 8.5622
v 34.4632 -0.521033 8.5622
v 34.5281 -0.374696 31.5798
v 34.5281 3.70132 31.5798
v 34.4632 3.70132 31.6407
v 34.5831 -0.374696 31.4065
v 34.5831 3.70132 31.4065
v 34.6198 -0.374696 31.147
v 34.6198 3.70132 31.147
v 34.6327 3.70132 30.8409
v 34.4632 -0.374696 7.76235
v 34.4632 -0.430697 7.82323
v 29.7412 -0.430697 7.82323
v 29.7412 -0.374696 7.76235
v 34.4632 -0.478172 7.99662
v 29.7412 -0.478172 7.99662
v 34.4632 -0.509893 8.25611
v 29.7412 -0.509893 8.25611
v 29.7412 -0.521033 8.5622
v 34.6198 -0.374696 8.25611
v 34.6198 3.70132 8.25611
v 34.6327 3.70132 8.5622
v 34.5831 -0.374696 7.99662
v 34.5831 3.70132 7.99662
v 34.5281 -0.374696 7.82323
v 34.5281 3.70132 7.82323
v 34.4632 3.70132 7.76235
v 34.4632 3.75733 31.5798
v 29.7412 3.75733 31.5798
v 29.7412 3.70132 31.6407
v 34.4632 3.8048 31.4065
v 29.7412 3.8048 31.4065
v 34.4632 3.83652 31.147
v 29.7412 3.83652 31.147
v 34.4632 3.84766 30.8409
v 29.7412 3.84766 30.8409
v 34.5281 3.83652 30.8409
v 34.5281 3.83652 8.5622
v 34.4632 3.84766 8.5622
v 34.5831 3.8048 30.8409
v 34.5831 3.8048 8.5622
v 34.6198 3.75733 30.8409
v 34.6198 3.75733 8.5622
v 34.4632 3.83652 8.25611
v 29.7412 3.83652 8.25611
v 29.7412 3.84766 8.5622
v 34.4632 3.8048 7.99662
v 29.7412 3.8048 7.99662
v 34.4632 3.75733 7.82323
v 29.7412 3.75733 7.82323
v 29.7412 3.70132 7.76235
v 29.6763 3.70132 31.5798
v 29.6763 -0.374696 31.5798
v 29.6213 3.70132 31.4065
v 29.6213 -0.374696 31.4065
v 29.5845 3.70132 31.147
v 29.5845 -0.374696 31.147
v 29.5716 3.70132 30.8409
v 29.5716 -0.374696 30.8409
v 29.5845 3.75733 30.8409
v 29.5845 3.75733 8.5622
v 29.5716 3.70132 8.5622
v 29.6213 3.8048 30.8409
v 29.6213 3.8048 8.5622
v 29.6763 3.83652 30.8409
v 29.6763 3.83652 8.5622
v 29.5845 3.70132 8.25611
v 29.5845 -0.374696 8.25611
v 29.5716 -0.374696 8.5622
v 29.6213 3.70132 7.99662
v 29.6213 -0.374696 7.99662
v 29.6763 3.70132 7.82323
v 29.6763 -0.374696 7.82323
v 29.6763 -0.509893 30.8409
v 29.6763 -0.509893 8.5622
v 29.6213 -0.478172 30.8409
v 29.6213 -0.478172 8.5622
v 29.5845 -0.430697 30.8409
v 29.5845 -0.430697 8.5622
v 34.5217 -0.425207 31.5387
v 34.5129 -0.473542 31.3812
v 34.5217 -0.50237 31.117
v 34.5777 -0.473542 31.0753
v 34.6111 -0.425207 31.117
v 34.5777 -0.41758 31.3812
v 34.561 -0.459154 31.3025
v 34.5217 -0.50237 8.28611
v 34.5129 -0.473542 8.02193
v 34.5217 -0.425207 7.86436
v 34.5777 -0.41758 8.02193
v 34.6111 -0.425207 8.28611
v 34.5777 -0.473542 8.3278
v 34.561 -0.459154 8.10056
v 34.5217 3.829 31.117
v 34.5129 3.80017 31.3812
v 34.5217 3.75184 31.5387
v 34.5777 3.74421 31.3812
v 34.6111 3.75184 31.117
v 34.5777 3.80017 31.0753
v 34.561 3.78578 31.3025
v 34.5217 3.75184 7.86436
v 34.5129 3.80017 8.02193
v 34.5217 3.829 8.28611
v 34.5777 3.80017 8.3278
v 34.6111 3.75184 8.28611
v 34.5777 3.74421 8.02193
v 34.561 3.78578 8.10056
v 29.5933 3.75184 31.117
v 29.6266 3.74421 31.3812
v 29.6826 3.75184 31.5387
v 29.6915 3.80017 31.3812
v 29.6826 3.829 31.117
v 29.6266 3.80017 31.0753
v 29.6433 3.78578 31.3025
v 29.6826 3.75184 7.86436
v 29.6266 3.74421 8.02193
v 29.5933 3.75184 8.28611
v 29.6266 3.80017 8.3278
v 29.6826 3.829 8.28611
v 29.6915 3.80017 8.02193
v 29.6433 3.78578 8.10056
v 29.6826 -0.50237 31.117
v 29.6915 -0.473542 31.3812
v 29.6826 -0.425207 31.5387
v 29.6266 -0.41758 31.3812
v 29.5933 -0.425207 31.117
v 29.6266 -0.473542 31.0753
v 29.6433 -0.459154 31.3025
v 29.6826 -0.425207 7.86436
v 29.6915 -0.473542 8.02193
v 29.6826 -0.50237 8.28611
v 29.6266 -0.473542 8.3278
v 29.5933 -0.425207 8.28611
v 29.6266 -0.41758 8.02193
v 29.6433 -0.459154 8.10056
vn 0.002321 -0.999997 0.000492
vn 0.001903 -0.997142 0.075525
vn -0.001903 -0.997142 0.075525
vn -0.002321 -0.999997 0.000492
vn 0.002268 -0.98367 0.179967
vn -0.002268 -0.98367 0.179967
vn 0.004217 -0.914652 0.404219
vn -0.004217 -0.914652 0.404219
vn 0.012685 -0.014695 0.999812
vn -0.012685 -0.014695 0.999812
vn 0.999995 -0.003115 0.00057
vn 0.901664 -0.432438 0.000423
vn 0.901664 -0.432438 -0.000423
vn 0.999995 -0.003115 -0.00057
vn 0.653423 -0.756993 0.00037
vn 0.653423 -0.756993 -0.00037
vn 0.336513 -0.941679 0.000381
vn 0.336513 -0.941679 -0.000381
vn 0.002321 -0.999997 -0.000492
vn 0.890109 -0.005508 0.455714
vn 0.890109 0.005508 0.455714
vn 0.012685 0.014695 0.999812
vn 0.978263 -0.003027 0.207345
vn 0.978263 0.003027 0.207345
vn 0.996169 -0.002552 0.08741
vn 0.996169 0.002552 0.08741
vn 0.999995 0.003115 0.00057
vn 0.012686 -0.014697 -0.999811
vn 0.004218 -0.914656 -0.404211
vn -0.004218 -0.914656 -0.404211
vn -0.012686 -0.014697 -0.999811
vn 0.002268 -0.98367 -0.179967
vn -0.002268 -0.98367 -0.179967
vn 0.001903 -0.997142 -0.075525
vn -0.001903 -0.997142 -0.075525
vn -0.002321 -0.999997 -0.000492
vn 0.996169 -0.002552 -0.08741
vn 0.996169 0.002552 -0.08741
vn 0.999995 0.003115 -0.00057
vn 0.978263 -0.003027 -0.207345
vn 0.978263 0.003027 -0.207345
vn 0.890114 -0.005509 -0.455705
vn 0.890114 0.005509 -0.455705
vn 0.012686 0.014697 -0.999811
vn 0.004217 0.914653 0.404218
vn -0.004217 0.914653 0.404218
vn -0.012685 0.014695 0.999812
vn 0.002268 0.98367 0.179968
vn -0.002268 0.98367 0.179968
vn 0.001903 0.997142 0.075525
vn -0.001903 0.997142 0.075525
vn 0.002321 0.999997 0.000492
vn -0.002321 0.999997 0.000492
vn 0.336512 0.941679 0.000381
vn 0.336512 0.941679 -0.000381
vn 0.002321 0.999997 -0.000492
vn 0.653426 0.75699 0.00037
vn 0.653426 0.75699 -0.00037
vn 0.901663 0.432438 0.000423
vn 0.901663 0.432438 -0.000423
vn 0.001903 0.997142 -0.075525
vn -0.001903 0.997142 -0.075525
vn -0.002321 0.999997 -0.000492
vn 0.002268 0.98367 -0.179968
vn -0.002268 0.98367 -0.179968
vn 0.004218 0.914656 -0.40421
vn -0.004218 0.914656 -0.40421
vn -0.012686 0.014697 -0.999811
vn -0.890109 0.005509 0.455714
vn -0.890109 -0.005509 0.455714
vn -0.978264 0.003028 0.20734
vn -0.978264 -0.003028 0.20734
vn -0.996169 0.002552 0.08741
vn -0.996169 -0.002552 0.08741
vn -0.999995 0.003115 0.00057
vn -0.999995 -0.003115 0.00057
vn -0.901663 0.432438 0.000423
vn -0.901663 0.432438 -0.000423
vn -0.999995 0.003115 -0.00057
vn -0.653436 0.756982 0.00037
vn -0.653436 0.756982 -0.00037
vn -0.336512 0.941679 0.000381
vn -0.336512 0.941679 -0.000381
vn -0.996169 0.002552 -0.08741
vn -0.996169 -0.002552 -0.08741
vn -0.999995 -0.003115 -0.00057
vn -0.978264 0.003028 -0.20734
vn -0.978264 -0.003028 -0.20734
vn -0.890114 0.005509 -0.455705
vn -0.890114 -0.005509 -0.455705
vn -0.336513 -0.941679 0.000381
vn -0.336513 -0.941679 -0.000381
vn -0.653433 -0.756984 0.00037
vn -0.653433 -0.756984 -0.00037
vn -0.901664 -0.432438 0.000423
vn -0.901664 -0.432438 -0.000423
vn 0.614671 -0.712094 0.339267
vn 0.36028 -0.917613 0.167882
vn 0.313941 -0.947108 0.066541
vn 0.652132 -0.755494 0.062871
vn 0.911147 -0.405353 0.074162
vn 0.869535 -0.458194 0.184301
vn 0.647252 -0.74983 0.137186
vn 0.313941 -0.947108 -0.066542
vn 0.360283 -0.917612 -0.167883
vn 0.614672 -0.712096 -0.339259
vn 0.869534 -0.458196 -0.184302
vn 0.911147 -0.405353 -0.074162
vn 0.652131 -0.755495 -0.062871
vn 0.647252 -0.74983 -0.137188
vn 0.313944 0.947107 0.066541
vn 0.360282 0.917612 0.167882
vn 0.614671 0.712093 0.339267
vn 0.869534 0.458195 0.184301
vn 0.911147 0.405353 0.074161
vn 0.652132 0.755494 0.062871
vn 0.647252 0.74983 0.137186
vn 0.614671 0.712097 -0.33926
vn 0.360285 0.917611 -0.167883
vn 0.313944 0.947107 -0.066542
vn 0.652132 0.755494 -0.062871
vn 0.911147 0.405353 -0.074162
vn 0.869532 0.458199 -0.184301
vn 0.647252 0.74983 -0.137188
vn -0.911146 0.405355 0.074162
vn -0.869531 0.458203 0.184297
vn -0.614665 0.7121 0.339264
vn -0.360279 0.917613 0.167883
vn -0.313942 0.947107 0.066542
vn -0.652138 0.755488 0.062873
vn -0.647249 0.749832 0.137186
vn -0.614666 0.712103 -0.339257
vn -0.869529 0.458208 -0.184297
vn -0.911146 0.405355 -0.074163
vn -0.652138 0.755488 -0.062873
vn -0.313942 0.947107 -0.066543
vn -0.360282 0.917612 -0.167883
vn -0.647249 0.749832 -0.137189
vn -0.31394 -0.947108 0.066542
vn -0.360278 -0.917614 0.167882
vn -0.614666 -0.712099 0.339264
vn -0.869532 -0.458201 0.184297
vn -0.911146 -0.405356 0.074162
vn -0.652138 -0.755489 0.062873
vn -0.647249 -0.749832 0.137186
vn -0.614666 -0.712103 -0.339257
vn -0.36028 -0.917613 -0.167883
vn -0.31394 -0.947108 -0.066543
vn -0.652138 -0.755488 -0.062873
vn -0.911146 -0.405356 -0.074163
vn -0.86953 -0.458205 -0.184297
vn -0.64725 -0.749831 -0.137188
vt 0.383374 0.991626
vt 0.379177 0.993181
vt 0.379188 0.756819
vt 0.383374 0.758374
vt 0.375 0.994732
vt 0.375 0.755268
vt 0.369732 0
vt 0.368181 0.004188
vt 0.131819 0.00417697
vt 0.130268 0
vt 0.366626 0.00837398
vt 0.133374 0.00837398
vt 0.383374 0.00837398
vt 0.381819 0.00418901
vt 0.618181 0.004188
vt 0.616626 0.00837398
vt 0.380268 0
vt 0.619732 0
vt 0.380268 1
vt 0.381819 0.995822
vt 0.618181 0.995823
vt 0.619732 1
vt 0.616626 0.991626
vt 0.370823 0.00832999
vt 0.370831 0.24167
vt 0.366626 0.241626
vt 0.375 0.00831097
vt 0.375017 0.241688
vt 0.379178 0.00832999
vt 0.379197 0.241669
vt 0.383374 0.241626
vt 0.633374 0.00837398
vt 0.631819 0.00418901
vt 0.868181 0.00417799
vt 0.866626 0.00837398
vt 0.630268 0
vt 0.869732 0
vt 0.625 0.994732
vt 0.620822 0.993181
vt 0.620811 0.756819
vt 0.625 0.755268
vt 0.616626 0.758374
vt 0.620823 0.00832999
vt 0.620803 0.24167
vt 0.616626 0.241626
vt 0.625 0.00831097
vt 0.624983 0.241688
vt 0.629177 0.00832999
vt 0.629169 0.24167
vt 0.633374 0.241626
vt 0.368181 0.245811
vt 0.131819 0.245822
vt 0.133374 0.241626
vt 0.369732 0.25
vt 0.130268 0.25
vt 0.375 0.255268
vt 0.379188 0.256819
vt 0.379189 0.493181
vt 0.375 0.494732
vt 0.383374 0.258374
vt 0.383374 0.491626
vt 0.38333 0.254169
vt 0.61667 0.254169
vt 0.616626 0.258374
vt 0.383312 0.249984
vt 0.616688 0.249983
vt 0.38333 0.245803
vt 0.616669 0.245803
vt 0.620811 0.256819
vt 0.620812 0.493181
vt 0.616626 0.491626
vt 0.625 0.255268
vt 0.625 0.494732
vt 0.630268 0.25
vt 0.631819 0.245812
vt 0.868181 0.245823
vt 0.869732 0.25
vt 0.866626 0.241626
vt 0.129177 0.243181
vt 0.129178 0.00681901
vt 0.125 0.244732
vt 0.125 0.00526798
vt 0.375 0.505268
vt 0.379188 0.506819
vt 0.379189 0.743181
vt 0.375 0.744732
vt 0.383374 0.508374
vt 0.383374 0.741626
vt 0.38333 0.504177
vt 0.61667 0.504178
vt 0.616626 0.508374
vt 0.383311 0.5
vt 0.616689 0.5
vt 0.38333 0.495822
vt 0.61667 0.495823
vt 0.620811 0.506819
vt 0.620812 0.743181
vt 0.616626 0.741626
vt 0.625 0.505268
vt 0.625 0.744732
vt 0.875 0.244732
vt 0.870822 0.243181
vt 0.870823 0.00681901
vt 0.875 0.00526798
vt 0.38333 0.754177
vt 0.61667 0.754178
vt 0.383311 0.75
vt 0.616689 0.75
vt 0.38333 0.745822
vt 0.61667 0.745823
vt 0.37132 0.00445598
vt 0.372281 0
vt 0.375 0.997281
vt 0.378682 0.996325
vt 0.377719 1
vt 0.377719 0
vt 0.378677 0.00445598
vt 0.375009 0.00474501
vt 0.375 0
vt 0.375 1
vt 0.621325 0.996318
vt 0.625 0.997281
vt 0.627719 0
vt 0.628677 0.00445598
vt 0.625009 0.00474501
vt 0.62132 0.00445598
vt 0.622281 0
vt 0.622281 1
vt 0.625 1
vt 0.625 0
vt 0.379458 0.253646
vt 0.375 0.252719
vt 0.372281 0.25
vt 0.371357 0.245543
vt 0.375161 0.245248
vt 0.379493 0.24551
vt 0.379752 0.249838
vt 0.375 0.25
vt 0.628646 0.245542
vt 0.627719 0.25
vt 0.625 0.252719
vt 0.620543 0.253643
vt 0.620248 0.249839
vt 0.62051 0.245507
vt 0.624838 0.245248
vt 0.625 0.25
vt 0.379456 0.50368
vt 0.375 0.502719
vt 0.125 0.247281
vt 0.128682 0.246325
vt 0.127719 0.25
vt 0.375 0.497281
vt 0.379456 0.496323
vt 0.379745 0.499991
vt 0.375 0.5
vt 0.125 0.25
vt 0.871325 0.246318
vt 0.875 0.247281
vt 0.625 0.502719
vt 0.620544 0.503677
vt 0.620255 0.500009
vt 0.620544 0.49632
vt 0.625 0.497281
vt 0.872281 0.25
vt 0.875 0.25
vt 0.625 0.5
vt 0.379456 0.75368
vt 0.375 0.752719
vt 0.127719 0
vt 0.128675 0.00368202
vt 0.125 0.00271899
vt 0.375 0.747281
vt 0.379456 0.746323
vt 0.379745 0.749991
vt 0.375 0.75
vt 0.125 0
vt 0.871318 0.00367498
vt 0.872281 0
vt 0.625 0.752719
vt 0.620544 0.753677
vt 0.620255 0.750009
vt 0.620544 0.74632
vt 0.625 0.747281
vt 0.875 0.00271899
vt 0.875 0
vt 0.625 0.75
usemtl material_1
f 1/1/1 2/2/2 3/3/3 4/4/4 
f 2/2/2 5/5/5 6/6/6 3/3/3 
f 5/7/5 7/8/7 8/9/8 6/10/6 
f 7/8/7 9/11/9 10/12/10 8/9/8 
f 11/13/11 12/14/12 13/15/13 14/16/14 
f 12/14/12 15/17/15 16/18/16 13/15/13 
f 15/19/15 17/20/17 18/21/18 16/22/16 
f 17/20/17 1/1/1 19/23/19 18/21/18 
f 9/11/9 20/24/20 21/25/21 22/26/22 
f 20/24/20 23/27/23 24/28/24 21/25/21 
f 23/27/23 25/29/25 26/30/26 24/28/24 
f 25/29/25 11/13/11 27/31/27 26/30/26 
f 28/32/28 29/33/29 30/34/30 31/35/31 
f 29/33/29 32/36/32 33/37/33 30/34/30 
f 32/38/32 34/39/34 35/40/35 33/41/33 
f 34/39/34 19/23/19 36/42/36 35/40/35 
f 14/16/14 37/43/37 38/44/38 39/45/39 
f 37/43/37 40/46/40 41/47/41 38/44/38 
f 40/46/40 42/48/42 43/49/43 41/47/41 
f 42/48/42 28/32/28 44/50/44 43/49/43 
f 22/26/22 45/51/45 46/52/46 47/53/47 
f 45/51/45 48/54/48 49/55/49 46/52/46 
f 48/56/48 50/57/50 51/58/51 49/59/49 
f 50/57/50 52/60/52 53/61/53 51/58/51 
f 52/60/52 54/62/54 55/63/55 56/64/56 
f 54/62/54 57/65/57 58/66/58 55/63/55 
f 57/65/57 59/67/59 60/68/60 58/66/58 
f 59/67/59 27/31/27 39/45/39 60/68/60 
f 56/64/56 61/69/61 62/70/62 63/71/63 
f 61/69/61 64/72/64 65/73/65 62/70/62 
f 64/74/64 66/75/66 67/76/67 65/77/65 
f 66/75/66 44/50/44 68/78/68 67/76/67 
f 47/53/47 69/79/69 70/80/70 10/12/10 
f 69/79/69 71/81/71 72/82/72 70/80/70 
f 71/83/71 73/84/73 74/85/74 72/86/72 
f 73/84/73 75/87/75 76/88/76 74/85/74 
f 75/87/75 77/89/77 78/90/78 79/91/79 
f 77/89/77 80/92/80 81/93/81 78/90/78 
f 80/92/80 82/94/82 83/95/83 81/93/81 
f 82/94/82 53/61/53 63/71/63 83/95/83 
f 79/91/79 84/96/84 85/97/85 86/98/86 
f 84/96/84 87/99/87 88/100/88 85/97/85 
f 87/101/87 89/102/89 90/103/90 88/104/88 
f 89/102/89 68/78/68 31/35/31 90/103/90 
f 4/4/4 91/105/91 92/106/92 36/42/36 
f 91/105/91 93/107/93 94/108/94 92/106/92 
f 93/107/93 95/109/95 96/110/96 94/108/94 
f 95/109/95 76/88/76 86/98/86 96/110/96 
f 11/13/11 14/16/14 39/45/39 27/31/27 
f 52/60/52 56/64/56 63/71/63 53/61/53 
f 75/87/75 79/91/79 86/98/86 76/88/76 
f 4/4/4 36/42/36 19/23/19 1/1/1 
f 28/32/28 31/35/31 68/78/68 44/50/44 
f 10/12/10 9/11/9 22/26/22 47/53/47 
f 20/24/20 9/11/9 7/8/7 97/111/97 
f 97/111/97 7/8/7 5/7/5 98/112/98 
f 98/113/98 5/5/5 2/2/2 99/114/99 
f 2/2/2 1/1/1 17/20/17 99/114/99 
f 99/114/99 17/20/17 15/19/15 100/115/100 
f 100/116/100 15/17/15 12/14/12 101/117/101 
f 12/14/12 11/13/11 25/29/25 101/117/101 
f 101/117/101 25/29/25 23/27/23 102/118/102 
f 102/118/102 23/27/23 20/24/20 97/111/97 
f 102/118/102 97/111/97 98/112/98 103/119/103 
f 98/113/98 99/114/99 100/115/100 103/120/103 
f 100/116/100 101/117/101 102/118/102 103/119/103 
f 18/21/18 19/23/19 34/39/34 104/121/104 
f 104/121/104 34/39/34 32/38/32 105/122/105 
f 105/123/105 32/36/32 29/33/29 106/124/106 
f 29/33/29 28/32/28 42/48/42 106/124/106 
f 106/124/106 42/48/42 40/46/40 107/125/107 
f 107/125/107 40/46/40 37/43/37 108/126/108 
f 37/43/37 14/16/14 13/15/13 108/126/108 
f 108/126/108 13/15/13 16/18/16 109/127/109 
f 109/128/109 16/22/16 18/21/18 104/121/104 
f 109/128/109 104/121/104 105/122/105 110/129/110 
f 105/123/105 106/124/106 107/125/107 110/130/110 
f 107/125/107 108/126/108 109/127/109 110/130/110 
f 54/62/54 52/60/52 50/57/50 111/131/111 
f 111/131/111 50/57/50 48/56/48 112/132/112 
f 112/133/112 48/54/48 45/51/45 113/134/113 
f 45/51/45 22/26/22 21/25/21 113/134/113 
f 113/134/113 21/25/21 24/28/24 114/135/114 
f 114/135/114 24/28/24 26/30/26 115/136/115 
f 26/30/26 27/31/27 59/67/59 115/136/115 
f 115/136/115 59/67/59 57/65/57 116/137/116 
f 116/137/116 57/65/57 54/62/54 111/131/111 
f 116/137/116 111/131/111 112/132/112 117/138/117 
f 112/133/112 113/134/113 114/135/114 117/138/117 
f 114/135/114 115/136/115 116/137/116 117/138/117 
f 43/49/43 44/50/44 66/75/66 118/139/118 
f 118/139/118 66/75/66 64/74/64 119/140/119 
f 119/141/119 64/72/64 61/69/61 120/142/120 
f 61/69/61 56/64/56 55/63/55 120/142/120 
f 120/142/120 55/63/55 58/66/58 121/143/121 
f 121/143/121 58/66/58 60/68/60 122/144/122 
f 60/68/60 39/45/39 38/44/38 122/144/122 
f 122/144/122 38/44/38 41/47/41 123/145/123 
f 123/145/123 41/47/41 43/49/43 118/139/118 
f 123/145/123 118/139/118 119/140/119 124/146/124 
f 119/141/119 120/142/120 121/143/121 124/146/124 
f 121/143/121 122/144/122 123/145/123 124/146/124 
f 77/89/77 75/87/75 73/84/73 125/147/125 
f 125/147/125 73/84/73 71/83/71 126/148/126 
f 126/149/126 71/81/71 69/79/69 127/150/127 
f 69/79/69 47/53/47 46/52/46 127/150/127 
f 127/150/127 46/52/46 49/55/49 128/151/128 
f 128/152/128 49/59/49 51/58/51 129/153/129 
f 51/58/51 53/61/53 82/94/82 129/153/129 
f 129/153/129 82/94/82 80/92/80 130/154/130 
f 130/154/130 80/92/80 77/89/77 125/147/125 
f 130/154/130 125/147/125 126/148/126 131/155/131 
f 126/149/126 127/150/127 128/151/128 131/156/131 
f 128/152/128 129/153/129 130/154/130 131/155/131 
f 67/76/67 68/78/68 89/102/89 132/157/132 
f 132/157/132 89/102/89 87/101/87 133/158/133 
f 133/159/133 87/99/87 84/96/84 134/160/134 
f 84/96/84 79/91/79 78/90/78 134/160/134 
f 134/160/134 78/90/78 81/93/81 135/161/135 
f 135/161/135 81/93/81 83/95/83 136/162/136 
f 83/95/83 63/71/63 62/70/62 136/162/136 
f 136/162/136 62/70/62 65/73/65 137/163/137 
f 137/164/137 65/77/65 67/76/67 132/157/132 
f 137/164/137 132/157/132 133/158/133 138/165/138 
f 133/159/133 134/160/134 135/161/135 138/166/138 
f 135/161/135 136/162/136 137/163/137 138/166/138 
f 91/105/91 4/4/4 3/3/3 139/167/139 
f 139/167/139 3/3/3 6/6/6 140/168/140 
f 140/169/140 6/10/6 8/9/8 141/170/141 
f 8/9/8 10/12/10 70/80/70 141/170/141 
f 141/170/141 70/80/70 72/82/72 142/171/142 
f 142/172/142 72/86/72 74/85/74 143/173/143 
f 74/85/74 76/88/76 95/109/95 143/173/143 
f 143/173/143 95/109/95 93/107/93 144/174/144 
f 144/174/144 93/107/93 91/105/91 139/167/139 
f 144/174/144 139/167/139 140/168/140 145/175/145 
f 140/169/140 141/170/141 142/171/142 145/176/145 
f 142/172/142 143/173/143 144/174/144 145/175/145 
f 90/103/90 31/35/31 30/34/30 146/177/146 
f 146/177/146 30/34/30 33/37/33 147/178/147 
f 147/179/147 33/41/33 35/40/35 148/180/148 
f 35/40/35 36/42/36 92/106/92 148/180/148 
f 148/180/148 92/106/92 94/108/94 149/181/149 
f 149/181/149 94/108/94 96/110/96 150/182/150 
f 96/110/96 86/98/86 85/97/85 150/182/150 
f 150/182/150 85/97/85 88/100/88 151/183/151 
f 151/184/151 88/104/88 90/103/90 146/177/146 
f 151/184/151 146/177/146 147/178/147 152/185/152 
f 147/179/147 148/180/148 149/181/149 152/186/152 
f 149/181/149 150/182/150 151/183/151 152/186/152 
s off
